/* XPM */
static char *out[] = {
/* columns rows colors chars-per-pixel */
"64 64 97 2 ",
"   c #24263D",
".  c #23283E",
"X  c #262D46",
"o  c #282E46",
"O  c #272E48",
"+  c #282D4A",
"@  c #263047",
"#  c #283047",
"$  c #26304B",
"%  c #2B324E",
"&  c #30364E",
"*  c #32384E",
"=  c #2E3552",
"-  c #2F3857",
";  c #2F3958",
":  c #303754",
">  c #333A54",
",  c #313759",
"<  c #323B5A",
"1  c #383D5A",
"2  c #373F63",
"3  c #393F63",
"4  c #37415C",
"5  c #38425D",
"6  c #374162",
"7  c #3A4266",
"8  c #3F4865",
"9  c #3B4569",
"0  c #3F496C",
"q  c #414B66",
"w  c #494F67",
"e  c #414B6C",
"r  c #494F69",
"t  c #46516D",
"y  c #48546E",
"u  c #444E71",
"i  c #465375",
"p  c #495473",
"a  c #4C5874",
"s  c #495578",
"d  c #4D5B7D",
"f  c #515C76",
"g  c #515F7C",
"h  c #4F607E",
"j  c #52617E",
"k  c #C7810C",
"l  c #C8810D",
"z  c #D3870F",
"x  c #D5890F",
"c  c #DA8B0E",
"v  c #D48810",
"b  c #EA960F",
"n  c #F39C0F",
"m  c #E59211",
"M  c #EB9611",
"N  c #ED9811",
"B  c #F39C11",
"V  c #F2A21F",
"C  c #F2A222",
"Z  c #F3A42A",
"A  c #F3A630",
"S  c #F2A935",
"D  c #F3AB3B",
"F  c #F3AE46",
"G  c #F3AF4A",
"H  c #F5B04B",
"J  c #F2B353",
"K  c #F4B75C",
"L  c #F2BA65",
"P  c #515E80",
"I  c #546483",
"U  c #586786",
"Y  c #576886",
"T  c #5B6983",
"R  c #576588",
"E  c #586788",
"W  c #5B6A8B",
"Q  c #5F6F90",
"!  c #616D86",
"~  c #626D89",
"^  c #64718B",
"/  c #6B768E",
"(  c #647391",
")  c #697794",
"_  c #6A7B97",
"`  c #6B7B98",
"'  c #707F96",
"]  c #717F9A",
"[  c #6F809B",
"{  c #718095",
"}  c #74849D",
"|  c #7987A0",
" . c #7C8CA5",
".. c #7C8BAA",
"X. c #8190A7",
"o. c #8393AB",
"O. c #8797B1",
/* pixels */
"9 9 9 9 9 9 9 9 9 9 7 < = o + % < 7 9 9 9 9 9 7 7 7 0 i P R I P i 0 7 7 7 9 7 9 7 9 9 9 9 9 6 > = O X = < 6 9 9 9 7 e s I E W Q ",
"7 7 7 7 7 7 7 9 9 9 6 < % O O % < 3 7 7 9 7 7 7 7 7 0 i P I E P i 0 7 7 7 7 7 7 7 7 7 7 7 7 6 < = % O = < 6 9 7 7 7 9 p d I W W ",
"3 2 2 2 6 2 6 7 6 6 1 > % O O % , 1 6 6 6 2 6 6 7 7 0 i d P I s i 9 6 7 7 7 7 7 7 6 6 6 6 6 1 - = X O % - < 6 6 4 6 7 q s j I P ",
"< < < < < < < < < < > = O X X O = = - 1 > < < < 6 7 9 u i d s i i 8 9 7 9 9 7 6 < < ; ; < - > % O % O + = - < < > < < 5 8 9 t i ",
"% % % % % % % % % % % O O X X O o % % % % % = > 3 6 9 e u p i u e q 7 7 7 7 6 4 < = % % % % % + X X X X @ % % % % % % > < 1 4 4 ",
"+ + + + + + + + + X O O O O O O + + # + o + % > < 7 7 9 9 0 e e 8 7 7 7 7 7 6 < = % X O + O + + O X $ + O O # o % + % $ % % % % ",
"% % % % = % % % % % % % = % % $ : : : : > = > 1 1 6 7 7 7 7 7 9 7 7 6 7 6 6 6 1 1 > : * & % % % % % % % % % % % % % % % % % % % ",
"5 5 5 5 5 5 5 4 5 4 4 4 4 5 7 q t t a y y y w w 7 1 < < 6 7 7 7 7 7 7 6 1 < 1 5 q t t q q 5 5 1 5 5 4 5 5 5 5 5 4 4 4 4 4 4 4 4 ",
"y y y y y y y y y y y p p y a g T ^ / / / / j j q 1 = - < 2 6 7 9 7 6 1 - : 1 8 f T ! T g p y y y y y y y y y t t y y y t t t t ",
"h j j h j j j j I j j d j j U ^ _ |  .X.X. .} j r > % = < 6 7 9 9 7 6 < = % > r T } } [ ( T j g j j j j j j I j j j j j j j j j ",
"Y Y I I I I I I j I I I j I T ( ] ..o.o.O.o.} ! t - + = , 3 7 9 9 7 6 < % $ - r ! }  .} ` W I j I I I I I I I I I I I I I I I I ",
"h h d d d h P d d d d P d g I W ( ` } ......] U q : O % < 7 9 9 9 9 6 - % + = r T } | } ( I I d g h P P j d P P g j j g j h d d ",
"i i i i i i i i i i i i i i s d g E W ( ` ` ^ j q % + % < 7 9 9 9 9 6 - % + : q j ^ _ ^ W d i i i i i i i i i i p i i i p p i i ",
"0 0 0 0 0 0 0 0 0 e 0 0 e e e e u u s P U W U a 1 % # % < 2 9 9 9 7 2 < % + % 5 a T T I s e 9 0 0 0 0 0 0 0 0 0 0 0 0 0 9 0 0 0 ",
"7 7 9 9 9 e 0 0 e 0 0 0 9 9 7 7 7 7 e i P I j y 5 % + % - 1 2 6 6 6 5 : + O % 1 r a g s e 7 6 6 2 2 7 6 2 2 7 7 6 9 7 7 7 7 7 7 ",
"6 6 9 0 e i i i i i i e 0 9 7 6 6 6 9 p g I j p 5 % O o % = , < < < - % O X X - 4 e q 8 7 < - - - , ; ; - - ; < 2 6 7 7 7 7 7 7 ",
"7 7 9 e i d d g j d d i 0 9 7 6 6 6 9 p d I j y 1 % O X O % % % % % % + X O O + = 1 1 < : % % = % $ % % O O = - < 7 7 9 7 7 6 7 ",
"7 7 0 t d j I I I I j d i 0 7 7 6 7 0 i d I j y 5 % O X X O O O O $ O O O O O O O % % % + O X O X o + + O + + - < 2 7 7 7 9 7 7 ",
"7 7 0 e d j U U R R P d i 0 7 7 7 7 9 t d g h t 5 % o o $ L L L L L L + % % = % = O + + $ % % % $ % % = - : > 1 1 2 7 7 7 7 7 9 ",
"7 9 0 i i d j P P g d s e 9 7 7 7 7 9 i s d i 8 < % L L L L L L L L L L L L 1 > - = - : > 4 5 5 4 4 4 q r p r q 7 1 ; 1 6 7 9 9 ",
"7 9 9 0 e i i i s i i u u 9 7 7 7 9 9 e u u e 6 L L L J D Z Z Z Z Z Z D J L L L 2 1 < 6 q r y y t y a g ! ^ ! f q 1 : - 1 6 9 9 ",
"7 7 7 9 9 9 9 e 0 9 9 9 7 9 9 7 7 9 9 9 0 0 7 L L J Z B B n n B B B B n B Z J L L 7 7 q i d j j j j U ^ ' } ' ! t > % = < 6 7 7 ",
"2 2 4 6 6 2 7 3 2 4 7 7 7 7 9 9 9 7 7 9 9 7 L L D B n n B B B B B B B B B B B D L L e u s d I I I U W ( ' } ] T q : + + = < 7 7 ",
"< < - - - - - : ; , < < 2 7 9 9 9 7 7 7 7 L L D B n B B B B B B B B B B B B B B D L L u i d g P g P I T ~ ~ T a 5 % X O % - ; < ",
"% = O % % % % + + + % : < 7 9 9 9 7 7 7 L L F B B B B B b c z z z z c M B B B B B G L L u i i s i i i s y y e 1 > O X X O % % % ",
"+ + O O + + + + + + % = < 7 7 9 9 7 7 9 L K B B B B N c l l l l k l l l z M B B B B K L 9 0 0 e e 0 0 7 5 1 > % O O # X O + + + ",
"% % = % % % + & : - > 1 1 6 2 7 7 7 7 L L Z B B B B v l l l l l l l l l l z B B B B Z L L 9 7 6 7 7 6 4 1 > > : : % % % % % % % ",
"4 6 4 1 5 5 5 q w t r q 7 1 1 1 6 7 9 L J B B B B c l l l l x m m z l l l l c B B B B J L 6 7 6 1 < 1 4 8 q y q 8 4 5 4 4 5 5 5 ",
"y y y t t y a g T ! T f q 1 = < 1 7 L L S B B B M l l l k l b B B b l l l l l b B B B S L L 6 < ; = 1 q f T ! T g a y t y y p y ",
"j j h j h j U ( ] } { T r > % % - 7 L L Z B B B c l l l k k B n B n l l l k k c B B B Z L L 6 < = % > t T { } ` ^ Y j g j j j j ",
"I I I I h I W ` }  .} ~ t > O O = < L L B B B B l l l l l l V n B B l l l l l l B B B B L L 6 > % o > t ! } ..| ` W I I P I I E ",
"d d j d d P U ( } } [ T q & O O % = L L B B B B l l l l l l n n B n l l l l l l B B n B L L 6 : % + & q T } | ` ( E I d d P P P ",
"i p s i i i d I ( ` ^ j q % O X # % L L B B B n l l l l l l B B B B k k l l l l B B B B L L 6 > + o & q j ^ ) ( T d i p i i i i ",
"9 0 0 0 0 0 u d R W T a 7 % O X X + L L B B B B l k l l l l B B B n k k l k l l B B B B L L 6 > % o % 5 p I W I s u 0 0 9 0 0 0 ",
"7 7 7 7 7 7 0 i P I j y 5 % o X X O L L Z B B B x l l l l l B B B B l k l l k x B n n Z L L 6 > % o % 4 t j I j i e 9 7 7 7 7 7 ",
"7 7 7 7 6 7 0 i d I g p 5 % $ X + % L L S B B B m l l l l l N B B N l k l k l m B B n S L L 7 > % o % 4 r g I d s 0 7 6 7 7 7 7 ",
"7 7 7 7 6 7 0 i d j I t 5 $ @ O % < 1 L H B B B B z l l l l c N B c k l l l v B B B B J L 9 7 - % + % 4 t g I d i 0 7 6 7 7 7 7 ",
"7 7 7 7 7 7 0 i d I j y 4 % o $ = 1 7 L L V B N B M l l l l l l k l k k l l N B B B C L L 7 2 < % + % 5 y j I d i 0 7 7 7 7 7 7 ",
"7 7 7 7 7 7 0 i P I j y 5 % o % - 2 9 p L J B B B B N x l l l l k k k k x N B B B N J L 7 6 1 > % O = 5 t j I P i 0 7 7 7 7 7 7 ",
"9 9 9 7 7 9 0 i P T j y 5 % + % - 3 e i L L D B B B B B m v l l l l z m B B B B B D L L < < > = + o % 4 p I U P s e 9 7 7 9 7 7 ",
"9 9 7 7 7 9 e s g W P y 4 % + % - 2 9 e u L L A B B B B B B B B B B B B B B B B A L L + % = % + O O % 5 p I I I s 0 9 7 7 9 9 9 ",
"7 7 7 7 7 7 9 s j I j y 5 % + % < 6 7 9 9 L L L F B n B n B B B B B B B B B B G L L L O + o X X X X = 4 p j I h i 9 7 7 7 7 7 7 ",
"6 6 2 6 6 6 7 e i h a t 4 = % = < 6 7 7 9 7 7 L L H C B B B B B B B B B B C G L L % + $ o + X X . X + 4 q a d i t 9 6 6 2 2 6 6 ",
"1 < < < < 1 1 6 q q 8 7 1 > = - < 6 4 7 7 7 7 7 L L L H Z B B B B B B Z G L L L < 4 1 , + X . . . X O > 4 q q 8 6 < < = : < < < ",
"% % % % % - = > 1 4 4 1 1 < < < 7 7 7 7 7 7 7 7 7 L L L L L L L L L L L L L L 7 8 t q 4 > X   . . X X O = < 1 > : = % % = % % % ",
"+ + + + O O O O $ % % > < 2 6 7 7 7 7 7 9 9 7 7 7 7 e s L L L L L L L L = < 3 e a d a q 1 % O . . X X X % $ % % $ + + + O O + O ",
"O O O O O O O O O X % = < 7 7 9 9 e 0 9 9 9 7 7 7 7 9 i g I g i 3 % + O , 6 e i P h h t 7 = % o o X O X $ % % % % % % % % % = + ",
"% % % $ X X X O O % = < 1 7 9 0 u p t i 0 9 7 7 9 7 q i P R I p 5 % + = ; 6 7 i s d d y q 4 1 > % @ + % = 1 1 5 4 5 5 5 5 5 5 6 ",
"< > > = $ X + $ = > < 1 7 7 9 i i d s s u 7 7 7 7 7 e i d R I p 4 % + % < 6 9 0 u p i i y t q 4 > $ $ - 4 q w e y y y y y y y y ",
"7 6 1 > % + X % > 1 6 7 7 7 e y s P P d i 0 7 7 7 7 9 i P I j t 1 = O % < 2 9 9 9 9 e i d g a q 1 % O 1 8 a j I d I I j j j j j ",
"9 7 6 < - + o % < 6 7 9 7 7 e u d P P d p 0 7 7 6 7 e s s I P r 4 % X % < 2 7 7 7 9 e i d I j e 4 % % 1 t h Y W I I I I I I I I ",
"9 9 7 < = + + % < 6 9 9 9 7 e u i d d s u 0 7 7 7 9 9 u i d i q 1 $ O = > 6 7 7 7 7 e i g U I t 4 = % 4 y I W E W I d d h h d d ",
"9 9 6 < % O O % < 7 9 7 9 9 9 e u i i u 0 9 9 7 7 9 9 0 i t e 6 > O + = > 6 7 7 7 7 e i j R I y 4 % % 1 y I T R P i i p i i i i ",
"9 6 6 < = O O % > 6 7 9 9 7 7 9 9 0 0 9 9 9 7 7 7 9 9 7 0 0 7 1 - O O $ < 6 7 7 7 7 0 i d I j t 4 % % 5 t g I j s u 0 0 9 0 0 0 ",
"9 7 6 < = = + = < 1 2 2 7 2 6 6 6 6 6 6 6 6 2 6 7 6 6 2 6 2 1 ; - + % = 1 2 7 7 7 7 0 i d I j t 4 % % 1 r d j d i 0 7 7 7 7 9 7 ",
"9 7 6 1 < : = = > < < < < < 1 1 < < < < < < < ; < < 1 < < < > = = - - > 1 6 7 7 7 7 0 i g E j y 4 % % > 8 i s i u 9 7 7 7 7 7 7 ",
"9 7 7 6 2 < < - = = % % = = = % = % % = + = % % % % % % % % % = = < < 1 2 7 7 7 7 7 e i P I j t 1 = O - 6 e u u 0 9 7 7 7 7 7 7 ",
"7 7 7 7 7 6 1 > = % + + X O + X + + O O O X + + + + O $ o O % = < 2 6 7 7 7 7 7 7 7 e i d I j t 5 + O = 1 7 0 0 9 9 7 7 7 7 7 7 ",
"7 7 7 7 9 9 7 1 = % + X O O O + O + O O O + + + $ + O O O X % = < 7 9 9 e 9 9 e 9 9 9 p d j d t 5 = + = < 6 7 9 9 7 7 7 7 7 7 7 ",
"7 7 6 7 9 9 7 6 < - % X X X X X O = + - = = = = = = = % % % = < 1 7 9 e u s i e e 9 9 u i a s q < + O % < 3 7 9 9 7 7 7 9 9 7 7 ",
"7 7 7 9 9 9 7 6 2 < > = + X O $ = > < < < < < < < < < < < < < 1 2 7 9 u s d s i u 9 9 0 u u 0 6 ; O + % < 6 7 9 7 7 7 7 7 7 7 7 ",
"7 7 7 7 7 7 7 7 7 6 1 > % $ O % < 1 2 7 7 6 6 6 6 6 6 2 3 3 6 7 7 9 e s d g P d i 0 9 9 9 0 7 1 - O + + < 2 7 9 7 7 7 7 7 7 7 7 ",
"7 7 7 7 7 7 7 9 7 7 2 < % + + % < 2 9 9 9 7 6 7 7 7 7 7 7 7 7 7 7 9 e i j I I d i 0 7 7 7 7 6 < = + $ = 1 2 7 9 9 7 7 7 7 7 7 7 ",
"7 7 7 9 7 7 7 9 9 9 7 < = + + = ; 7 9 9 9 9 9 9 9 9 9 9 9 9 9 9 7 9 e i g E U g i 0 7 7 7 6 2 ; + + O % < 6 7 7 9 7 7 7 7 7 7 7 "
};
