/* XPM */
static char *bf942e45da354830ef811e93c632bae0ephRvbu38scJPg3N[] = {
/* columns rows colors chars-per-pixel */
"64 64 29 1 ",
"  c black",
". c #31E67B",
"X c #33E17C",
"o c #33E27C",
"O c #33E27C",
"+ c #32E37C",
"@ c #32E27D",
"# c #31E37D",
"$ c #32E27D",
"% c None",
"& c #33E27D",
"* c #31DC7A",
"= c #2FD475",
"- c #2FD174",
"; c #2ECC71",
": c #31D978",
"> c #2ED073",
", c #28B462",
"< c #23A258",
"1 c #219853",
"2 c #229F56",
"3 c #25A95C",
"4 c #219B54",
"5 c #2ECD71",
"6 c #2FD274",
"7 c #31DB79",
"8 c #30D877",
"9 c #2ECE72",
"0 c white",
/* pixels */
"   .XoOO&&&&&&&&&&&&&&&&&&&&&&&&&&&&&&&&&&&&&&&&&&&&&&&&OOoX.   ",
"  +&&&&&&&&&&&&&&&&&&&&&&&&&&&&&&&&&&&&&&&&&&&&&&&&&&&&&&&&&&+  ",
" @&&*=--;;;;;;;;;;;;;;;;;;;;;;;;;;;;;;;;;;;;;;;;;;;;;;;;--=*&&@ ",
"#&&=;;;;;;;;;;;;;;;;;;;;;;;;;;;;;;;;;;;;;;;;;;;;;;;;;;;;;;;;=&&#",
"$&:;;;;;;;;;;;;;;;;;;;;;;;;;;;;;;;;;;;;;;;;;;;;;;;;;;;;;;;;;;:&$",
"%&>;;;;;;;;;;;;;;;;;;;;;;;;;;;;;;;;;;;;;;;;;;;;;;;;;;;;;;;;;;>&%",
"&&;;;;;;;;;;;;;;;;;;;;;;;;;;;;;;;;;;;;;;;;;;;;;;;;;;;;;;;;;;;;&&",
"&&;;;;;;;;;;;;;;;;;;;;;;;;;;;;;;;;;;;;;;;;;;;;;;;;;;;;;;;;;;;;&&",
"&&;;;;;;;;;;;;;;;;;;;;;;;;;;;;;;;;;;;;;;;;;;;;;;;;;;;;;;;;;;;;&&",
"&&;;;;;;;;;;;;;;;;;;;;;;;;;;;;;;;;;;;;;;;;;;;;;;;;;;;;;;;;;;;;&&",
"&&;;;;;;;;,,,,,,,,,,<1111111111111111111111<,,,,,,,,,,;;;;;;;;&&",
"&&;;;;;;;;,,,,,,,,,,,<11111111111111111111<,,,,,,,,,,,;;;;;;;;&&",
"&&;;;;;;;;,,,,,,,,,,,,<111111111111111111<,,,,,,,,,,,,;;;;;;;;&&",
"&&;;;;;;;;,,,,,,,,,,,,,<1111111111111111<,,,,,,,,,,,,,;;;;;;;;&&",
"&&;;;;;;;;,,,,,,,,,,,,,,<11111111111111<,,,,,,,,,,,,,,;;;;;;;;&&",
"&&;;;;;;;;,,,,,,,,,,,,,,,<111111111111<,,,,,,,,,,,,,,,;;;;;;;;&&",
"&&;;;;;;;;,,,,,,,,,,,,,,,,<1111111111<,,,,,,,,,,,,,,,,;;;;;;;;&&",
"&&;;;;;;;;,,,,,,,,,,,,,,,,,<11111111<,,,,,,,,,,,,,,,,,;;;;;;;;&&",
"&&;;;;;;;;,,,,,,,,,,,,,,,,,,<111111<,,,,,,,,,,,,,,,,,,;;;;;;;;&&",
"&&;;;;;;;;,,,,,,,,,,,,,,,,,,,211112,,,,,,,,,,,,,,,,,,,;;;;;;;;&&",
"&&;;;;;;;;3,,,,,,,,,,,,,,,,,31111113,,,,,,,,,,,,,,,,,3;;;;;;;;&&",
"&&;;;;;;;;13,,,,,,,,,,,,,,,3111111113,,,,,,,,,,,,,,,31;;;;;;;;&&",
"&&;;;;;;;;113,,,,,,,,,,,,,31111<<11113,,,,,,,,,,,,,311;;;;;;;;&&",
"&&;;;;;;;;1113,,,,,,,,,,,31111<,,<11113,,,,,,,,,,,3111;;;;;;;;&&",
"&&;;;;;;;;11113,,,,,,,,,31111<,,,,<11113,,,,,,,,,31111;;;;;;;;&&",
"&&;;;;;;;;111113,,,,,,,31111<,,,,,,<11113,,,,,,,311111;;;;;;;;&&",
"&&;;;;;;;;1111113,,,,,31111<,,,,,,,,<11113,,,,,3111111;;;;;;;;&&",
"&&;;;;;;;;11111113,,,31111<,,,,,,,,,,<11113,,,31111111;;;;;;;;&&",
"&&;;;;;;;;111111113,31111<,,,,,,,,,,,,<11113,311111111;;;;;;;;&&",
"&&;;;;;;;;111111111<1111<,,,,,,,,,,,,,,<1111<111111111;;;;;;;;&&",
"&&;;;;;;;;1111111111111<,,,,,,,,,,,,,,,,<1111111111111;;;;;;;;&&",
"&&;;;;;;;;111111111111<,,,,,,,,,,,,,,,,,,<111111111111;;;;;;;;&&",
"&&;;;;;;;;1111111111113,,,,,,,,,,,,,,,,,,3111111111111;;;;;;;;&&",
"&&;;;;;;;;11111111111113,,,,,,,,,,,,,,,,31111111111111;;;;;;;;&&",
"&&;;;;;;;;111111111411113,,,,,,,,,,,,,,311114111111111;;;;;;;;&&",
"&&;;;;;;;;11111111<,<11113,,,,,,,,,,,,31111<,<11111111;;;;;;;;&&",
"&&;;;;;;;;1111111<,,,<11113,,,,,,,,,,31111<,,,<1111111;;;;;;;;&&",
"&&;;;;;;;;111111<,,,,,<11113,,,,,,,,31111<,,,,,<111111;;;;;;;;&&",
"&&;;;;;;;;11111<,,,,,,,<11113,,,,,,31111<,,,,,,,<11111;;;;;;;;&&",
"&&;;;;;;;;1111<,,,,,,,,,<11113,,,,31111<,,,,,,,,,<1111;;;;;;;;&&",
"&&;;;;;;;;111<,,,,,,,,,,,<11113,,31111<,,,,,,,,,,,<111;;;;;;;;&&",
"&&;;;;;;;;11<,,,,,,,,,,,,,<1111331111<,,,,,,,,,,,,,<11;;;;;;;;&&",
"&&;;;;;;;;1<,,,,,,,,,,,,,,,<11111111<,,,,,,,,,,,,,,,<1;;;;;;;;&&",
"&&;;;;;;;;<,,,,,,,,,,,,,,,,,<111111<,,,,,,,,,,,,,,,,,<;;;;;;;;&&",
"&&;;;;;;;;,,,,,,,,,,,,,,,,,,,211112,,,,,,,,,,,,,,,,,,,;;;;;;;;&&",
"&&;;;;;;;;,,,,,,,,,,,,,,,,,,31111113,,,,,,,,,,,,,,,,,,;;;;;;;;&&",
"&&;;;;;;;;,,,,,,,,,,,,,,,,,3111111113,,,,,,,,,,,,,,,,,;;;;;;;;&&",
"&&;;;;;;;;,,,,,,,,,,,,,,,,311111111113,,,,,,,,,,,,,,,,;;;;;;;;&&",
"&&;;;;;;;;,,,,,,,,,,,,,,,31111111111113,,,,,,,,,,,,,,,;;;;;;;;&&",
"&&;;;;;;;;,,,,,,,,,,,,,,3111111111111113,,,,,,,,,,,,,,;;;;;;;;&&",
"&&;;;;;;;;,,,,,,,,,,,,,311111111111111113,,,,,,,,,,,,,;;;;;;;;&&",
"&&;;;;;;;;,,,,,,,,,,,,31111111111111111113,,,,,,,,,,,,;;;;;;;;&&",
"&&;;;;;;;;,,,,,,,,,,,3111111111111111111113,,,,,,,,,,,;;;;;;;;&&",
"&&;;;;;;;;,,,,,,,,,,311111111111111111111113,,,,,,,,,,;;;;;;;;&&",
"&&;;;;;;;;;;;;;;;;;;;;;;;;;;;;;;;;;;;;;;;;;;;;;;;;;;;;;;;;;;;;&&",
"&&;;;;;;;;;;;;;;;;;;;;;;;;;;;;;;;;;;;;;;;;;;;;;;;;;;;;;;;;;;;;&&",
"&&;;;;;;;;;;;;;;;;;;;;;;;;;;;;;;;;;;;;;;;;;;;;;;;;;;;;;;;;;;;;&&",
"&&5;;;;;;;;;;;;;;;;;;;;;;;;;;;;;;;;;;;;;;;;;;;;;;;;;;;;;;;;;;5&&",
"O&6;;;;;;;;;;;;;;;;;;;;;;;;;;;;;;;;;;;;;;;;;;;;;;;;;;;;;;;;;;6&O",
"@&7;;;;;;;;;;;;;;;;;;;;;;;;;;;;;;;;;;;;;;;;;;;;;;;;;;;;;;;;;;7&@",
".&&=;;;;;;;;;;;;;;;;;;;;;;;;;;;;;;;;;;;;;;;;;;;;;;;;;;;;;;;;=&&.",
" @&&89;;;;;;;;;;;;;;;;;;;;;;;;;;;;;;;;;;;;;;;;;;;;;;;;;;;;98&&@ ",
"  $&&&&&&&&&&&&&&&&&&&&&&&&&&&&&&&&&&&&&&&&&&&&&&&&&&&&&&&&&&$  ",
"   #o&&&&&&&&&&&&&&&&&&&&&&&&&&&&&&&&&&&&&&&&&&&&&&&&&&&&&&o#   "
};
