/* XPM */
static char *_ee48396ea8146fc9bb57099e02d6e92qSTkKPvqAhW8ZQHt[] = {
/* columns rows colors chars-per-pixel */
"64 64 127 2 ",
"   c #21263C",
".  c #23283F",
"X  c #232740",
"o  c #262C45",
"O  c #282E46",
"+  c #272E48",
"@  c #282E49",
"#  c #263147",
"$  c #283047",
"%  c #26304A",
"&  c #2B324D",
"*  c #30364E",
"=  c #31384F",
"-  c #2D3552",
";  c #2F3857",
":  c #2F3A58",
">  c #303754",
",  c #323A54",
"<  c #313759",
"1  c #323B5A",
"2  c #383E5A",
"3  c #373F63",
"4  c #393F63",
"5  c #37415C",
"6  c #39425D",
"7  c #374263",
"8  c #3A4366",
"9  c #3F4965",
"0  c #3B4569",
"q  c #3E496B",
"w  c #424B65",
"e  c #414C6C",
"r  c #494F69",
"t  c #46526D",
"y  c #48536E",
"u  c #434E71",
"i  c #455275",
"p  c #465375",
"a  c #475476",
"s  c #475477",
"d  c #465274",
"f  c #485371",
"g  c #495470",
"h  c #4B5672",
"j  c #4E5571",
"k  c #485577",
"l  c #495676",
"z  c #495574",
"x  c #4D5874",
"c  c #4C5975",
"v  c #4A5678",
"b  c #4C597B",
"n  c #4D5A7C",
"m  c #4F5C7C",
"M  c #4E5D7E",
"N  c #4E5B7C",
"B  c #515B76",
"V  c #525E76",
"C  c #515C75",
"Z  c #545F7B",
"A  c #515F7C",
"S  c #515E7E",
"D  c #4F607E",
"F  c #53617C",
"G  c #52607D",
"H  c #51607F",
"J  c #52617E",
"K  c #53617E",
"L  c #53617E",
"P  c #515E80",
"I  c #505F80",
"U  c #515F80",
"Y  c #516081",
"T  c #536281",
"R  c #526182",
"E  c #546583",
"W  c #556485",
"Q  c #576687",
"!  c #556483",
"~  c #586683",
"^  c #586785",
"/  c #5B6983",
"(  c #5E6A82",
")  c #5F6B83",
"_  c #5A6885",
"`  c #5C6A84",
"'  c #5D6A83",
"]  c #586689",
"[  c #576A8A",
"{  c #596889",
"}  c #5B6B8C",
"|  c #5D6B8E",
" . c #5B6A8A",
".. c #5F6F90",
"X. c #616D86",
"o. c #626E88",
"O. c #626E88",
"+. c #62708B",
"@. c #64708A",
"#. c #67738B",
"$. c #64718C",
"%. c #68748C",
"&. c #6B778F",
"*. c #647390",
"=. c #647291",
"-. c #687796",
";. c #6C7C96",
":. c #697997",
">. c #6D7C99",
",. c #707F96",
"<. c #717F99",
"1. c #707F99",
"2. c #6F809C",
"3. c #718097",
"4. c #70809A",
"5. c #74839D",
"6. c #7785A0",
"7. c #7787A0",
"8. c #7685A2",
"9. c #7886A0",
"0. c #7D8BA5",
"q. c #7C8CA6",
"w. c #7F8FA8",
"e. c #7C8BA9",
"r. c #818FA9",
"t. c #8393AC",
"y. c #8797B1",
/* pixels */
"0 0 0 0 0 0 0 0 0 0 8 1 - O @ & 1 8 0 0 0 0 0 8 8 8 q p P Q Q P p q 8 8 8 0 8 0 8 0 0 0 0 0 7 , - @ + - 1 7 0 0 0 8 q k Y ] } ..",
"8 8 8 8 8 8 8 0 0 0 7 1 & @ @ & 1 3 8 0 0 8 8 8 8 8 q i P E Q M p q 8 8 8 8 8 8 8 8 8 8 8 8 7 1 - @ @ - 1 7 0 8 8 8 q f M Q  .} ",
"4 3 3 3 3 3 7 7 7 7 2 , & + + & < 2 7 7 7 3 7 7 8 8 q f n Y Y b f q 8 8 8 8 8 8 8 7 7 7 7 7 2 ; - + + & ; 1 7 7 5 7 8 w k M J Y ",
"1 1 1 1 1 1 1 1 1 1 , - @ o o @ - - ; 1 , ; 1 1 4 8 q u k b b p u 9 0 8 0 0 8 7 1 1 : : 1 > , & @ + + @ - ; : 1 , 1 1 6 9 e t f ",
"& & & & & & & & & & & @ + o o + + & & & & & - 1 3 7 0 e u f i u q 9 8 8 8 8 7 2 ; - & & & & & @ o o o + + & & & - & - , 1 2 5 6 ",
"@ @ @ @ @ % @ @ @ O + + + + + + @ @ $ @ O @ & > 1 8 8 0 q q q q 9 8 8 8 8 8 7 1 - & $ + @ @ @ + + + + + + + + O @ @ % % & & & & ",
"& & & & & & & & & & & & & & & & > > > > , > , 2 2 7 8 8 8 8 8 0 8 8 8 8 7 7 7 2 2 , > = * & & & & & & & & & & & & & & & & & & & ",
"6 6 6 6 6 6 6 6 6 5 5 5 6 6 8 w t y j y y y t w 8 2 1 1 3 8 8 8 8 8 8 7 2 1 2 6 w t t w w 6 6 5 6 6 6 6 6 6 6 6 6 6 6 5 5 5 5 5 ",
"y y y y y y y y y y y f f g x Z / #.&.&.&.#./ B w 2 > ; 1 3 8 8 0 8 7 2 ; > 2 w V / o.` Z g y t y y y y y y y y y y y y t t t t ",
"J J J J J J J J J J J A A J ~ +.;.7.0.w.r.0.<./ r , & - 1 7 8 0 0 8 7 1 - & , t / <.7.4.*._ J A J J J J J J J J J J J J J J J J ",
"E E E E E E E ! ! E ! Y Y E  .*.1.e.t.t.y.t.5.X.t > @ & < 4 8 0 0 8 3 1 & % > t X.5.q.7.:. .E J ! E E E E E E E E E E E E E E E ",
"D D M M M M M M M M M M M A !  .*.>.5.e.e.e.<./ w > @ & 1 8 0 0 0 0 7 : & @ > r / 4.7.5.*.Q Y M A P P P P P P P M A A A A A M M ",
"p p p p p p p p p p p p p p k n A Q  .=.:.>.*.F w * @ & 1 8 0 0 0 0 7 ; & @ > w K *.:.*.^ b p p p p p p p p p p p p p p p p p p ",
"q q q q q q q q q e q q q e e e u u k P ^ } ^ j 6 & + & 1 3 0 0 0 8 3 1 & @ & 6 j ^ ` E b u q q q q q q q q q q q q q q q q q q ",
"8 8 0 0 0 q q e e q q q 0 0 8 8 8 8 e p P E J y 6 & @ & > 2 3 7 8 3 2 > @ + & 2 r x A k e 8 7 3 3 3 8 3 3 3 8 8 8 8 8 8 8 8 8 8 ",
"7 8 0 q e i p p p p i e q 0 8 7 7 7 0 f M ! J f 6 & + + & > < 1 1 1 > & @ o O > 6 w w 9 7 1 ; ; ; ; ; ; ; ; ; 1 3 3 8 8 8 8 8 8 ",
"8 8 0 e p b M A A M b p e 0 8 7 7 7 0 f M ! J y 6 & + o + & & & & & & @ o o + % > 2 2 1 > & & & & % & & @ % & ; 1 8 8 0 8 8 8 8 ",
"8 8 q u b J E Q Q E J b i q 8 7 7 8 q p M ! J y 6 & + o o + + @ @ $ @ + + + + @ % & & & @ @ O @ O $ @ @ + @ & - 1 7 8 8 8 8 8 8 ",
"8 8 q u b J Q ^ Q Q J b f q 8 8 8 8 q f n A M t 5 & O + % % & & & & & & & & & & & @ @ @ % & & & % & & - > > , 2 2 3 8 8 8 8 8 0 ",
"8 0 q u p n A P P P n k u 0 8 8 8 8 0 u k b k 9 1 & @ % > 2 5 5 6 6 6 6 6 6 5 , ; - - > , 5 6 6 5 6 6 w t y t w 8 2 1 2 7 8 0 0 ",
"8 0 0 q u p p p k p p u e 0 0 8 8 8 0 e u u e 7 , % % > 6 w t g g y y y y y t 9 7 2 1 7 9 r y y t y j K ` #.X.Z w 2 > ; 2 7 0 0 ",
"8 8 8 0 0 0 q q q 0 0 0 0 0 0 8 8 0 0 0 q q 8 2 - @ & 2 w c J K K J J Y Y J m g q 8 8 w p m J J J J ^ $.>.5.<.X.t , & - 1 7 8 0 ",
"3 3 7 7 7 7 7 4 3 5 8 8 8 8 0 0 0 8 8 0 0 8 3 1 & @ & 2 w m ! Q Q E E Q Q E J c u q q u k A ! E ! E  .*.4.5.,./ w > @ @ - 1 7 7 ",
"1 1 ; ; ; ; ; > ; > 1 1 3 8 0 0 0 8 8 8 8 8 3 > & @ % 2 9 k A P Y P M A A M b p u q q u p n A P P P ! _ o.+./ j 6 & o + & ; : 1 ",
"& & % & & & & @ @ @ & ; 1 8 0 0 0 8 8 0 0 8 7 1 & + % , 7 e p k p p p p p p f e e 0 0 q u i p p p p p k g y w 5 > O o o + & & & ",
"@ @ @ @ @ @ @ @ @ @ & - 1 8 8 0 0 8 8 0 0 8 3 1 & @ @ - 2 8 q e e q q q e q q 0 0 0 0 0 0 q q e e q q 8 6 2 > & % + + + + @ @ @ ",
"& & & & & & & * = > , 2 2 7 7 8 8 8 8 8 0 8 7 1 & @ @ & 1 7 8 0 8 0 8 8 8 0 8 0 8 8 8 8 8 8 8 8 8 8 7 5 2 , , > * & & & & & & & ",
"6 6 6 5 5 6 6 9 r t t w 8 2 2 2 3 8 0 0 0 0 8 1 - @ @ & 1 3 8 0 8 8 8 8 8 8 8 8 8 8 8 8 8 8 8 7 2 1 2 6 9 w t w 9 6 6 6 6 6 6 6 ",
"y y y t t y j Z / o./ B w 2 - 1 2 8 0 0 0 8 8 1 - # @ & 1 3 8 0 0 8 8 8 8 7 7 8 8 8 8 8 8 8 7 1 ; - 2 w B / X./ Z x g y y y g g ",
"J J J J A J ^ *.4.5.3.` r , & & ; 3 8 0 0 8 3 1 & @ @ & 1 3 8 0 0 0 8 8 8 8 8 8 8 8 8 0 0 8 7 1 - & , t / <.5.4.*.^ J A J J J K ",
"E E ! Y Y E  .:.7.q.5.o.t > @ @ - 1 3 8 8 3 2 , & + + & ; 2 7 8 8 8 0 8 8 8 8 0 0 q q q 0 8 7 ; & $ = t o.5.q.7.:. .E Y Y E Q Q ",
"M M A M M P Q =.4.7.4.` w * + + & > 1 1 1 1 > & @ + o + & - 1 2 7 8 0 0 8 8 0 q u f f u q 0 7 > & @ * w / <.7.2.=.Q P M M P P P ",
"f f p p p p b ^ =.:.*.F w & + o + & & & & & & + + o o o + & - ; 2 8 0 0 8 8 q u p n n k u 0 7 , @ O * w F $.-.=.Q b p f p p p p ",
"q q q q q q u b Q  .^ x 8 & + o o + @ @ $ @ @ + + + + + + + & ; 1 7 8 0 8 8 q p b A P n p q 7 , & O & 6 g ~  .E b u q q 0 q q q ",
"8 8 8 8 8 8 q p P E J y 6 & + o o + @ % % & & & & & & & = > , 1 2 7 7 8 8 8 q u b P P n p q 7 , & O & 5 y J ! A p e 0 8 8 8 8 8 ",
"8 8 8 8 7 8 q p M Y A f 6 & + + @ & - , 1 5 6 6 6 6 6 w t t t w 8 2 1 2 7 8 0 u k n n k u 0 8 , & O & 5 t A Y M p q 8 7 8 8 8 8 ",
"8 8 8 8 7 8 q p M J J t 6 % + + & , 2 7 w t y f f g x K ` X./ V w 2 > ; 2 8 0 e u p p u e 0 8 ; & @ & 5 t A Y M f q 8 7 8 8 8 8 ",
"8 8 8 8 8 8 q p A ! J y 6 & O % - 2 8 e k M A J Y J ^ *.>.5.<./ t , & - 1 7 8 0 0 q q 0 q 8 3 1 & @ & 6 y J ! M p q 8 8 8 8 8 8 ",
"8 8 8 8 8 8 q p P E J y 6 & O & ; 3 q f b P Y Q Q Q } :.7.q.9.X.t > @ @ ; 2 3 8 8 7 7 8 8 7 2 > & @ & 6 t J E P p q 8 8 8 8 8 8 ",
"0 0 0 8 8 0 e p Y Q K y 6 & @ & ; 7 q u k n A A M P Q =.>.7.4.` r = O + & > 1 1 1 ; ; 1 1 1 , - @ O & 6 g ! Q Y p e 0 8 8 0 8 0 ",
"0 0 8 8 8 0 e k P Q K g 6 & @ & ; 3 0 e u f p p p p b Q =.:.$.Z w * + o + @ & & & & & & & - & @ + + & 6 g ! Q P k e 0 8 8 0 0 0 ",
"8 8 8 8 8 8 q p A ! J y 6 & @ & 1 7 8 0 q q q q 0 q u b !  .~ j 8 & o X o + @ @ O + @ @ @ O + o o + & 6 g J E M p q 8 8 8 8 8 8 ",
"7 7 3 7 3 7 8 e k m c t 5 - & - 1 7 8 8 0 8 8 8 8 8 q p A ! J y 6 & + X o + @ % % & % % O + o o . o % 5 w x m k e 0 7 3 3 3 3 3 ",
"1 1 1 1 1 1 2 7 w w w 8 2 , - ; 1 7 7 8 8 8 8 8 8 8 0 p n ! A f 6 & + o + & - , 1 5 2 > & o X .   o % > 6 w w 9 7 1 1 > > 1 1 1 ",
"& & & & & - - , 2 5 5 2 2 1 1 1 3 8 8 8 8 8 8 8 8 8 q p M ! A f 6 & + + & ; 1 7 w t w 6 > O .   . o O % - 1 2 , > - & & & & & & ",
"@ @ @ @ + @ @ % % & & , 1 3 7 8 8 8 8 8 0 8 8 8 8 8 q p A Q J f 6 & + % - 1 8 e c m c w 2 & + X . o o O & % & & % @ + @ @ @ @ @ ",
"+ @ + + + + + + + O & - 1 8 8 0 q q q 0 0 0 8 8 8 8 q p P Q Y f 6 & @ % ; 7 q p M D A y 8 > & O + + + O % & & & & & & & & & & & ",
"& & & % + o o + @ & - 1 2 8 0 q u f f u e 0 8 8 8 8 w p P Q Y g 6 & @ & : 7 0 i k n b g w 6 2 = & O O & > 2 2 5 5 6 6 6 6 6 6 6 ",
"1 , , - % + + % - > 1 2 8 8 q u p n b k u 0 8 8 8 8 q p A Q ! g 6 & % & 1 7 0 q u f p p g t w 6 > % % > 5 w r t y y y y y y y y ",
"8 3 2 , & @ + & , 2 7 8 8 8 q f b P P b f q 8 8 8 8 q p M E K y 5 & @ & 1 3 0 0 0 q e f b A x w 2 & % 2 9 x J Y Y Y Y J J J J J ",
"0 8 3 1 - @ O & 1 7 8 0 8 8 q f b P P b f q 8 8 7 8 q f b Y M t 5 & $ & 1 3 8 8 8 0 q p A ! A e 6 & & 2 t J ^  .^ Q E E E E E E ",
"0 0 8 1 - @ @ & 1 7 0 0 0 0 q u k n n k u q 8 8 8 0 q u k b k 9 2 % @ & , 7 8 8 8 8 q p P Q ! t 5 - & 5 y Y  .[ Q Y M M M M M M ",
"0 0 7 1 & + + & 1 8 0 0 0 0 0 e u p p u q 0 0 8 8 0 0 e u f e 7 , % @ & , 7 8 8 8 8 q p P Q ! y 5 & & 5 y Y _ Q P k p p p p p p ",
"0 8 7 1 - @ @ & , 7 8 0 0 8 8 0 0 q q 0 0 0 8 8 8 0 0 0 q q 8 2 - @ @ & 1 7 8 8 8 8 q p M E J t 5 & & 5 t J E J k u q q q q q q ",
"0 8 7 1 - & & - 1 2 3 7 8 7 7 7 7 7 7 7 7 7 7 7 7 7 7 7 7 3 2 ; - & & - 1 7 8 8 8 8 q p M E J t 5 & & 2 r m Y n p q 8 8 8 8 8 8 ",
"0 8 7 2 1 > - - , 1 1 1 1 1 1 1 1 1 1 1 1 1 1 1 1 1 1 1 1 1 , - - - ; , 2 7 8 8 8 8 q p A Q J y 5 & & , 9 k b p u 0 8 8 8 8 8 8 ",
"0 8 8 7 3 1 1 > - - & & - - - & & & & & & & & & & & & & & & & - > 1 1 2 3 8 8 8 8 8 q p P E J y 6 & % > 7 e u u q 0 8 8 8 8 8 8 ",
"8 8 8 8 8 7 2 , - & @ + + @ @ O @ @ @ @ @ + @ @ @ @ @ + O + & - 1 3 7 8 8 8 8 8 8 8 e p M E J t 6 & @ - 2 8 q q 0 0 8 8 8 8 8 8 ",
"8 8 8 8 0 0 8 2 - & @ + + + + + + @ @ @ % @ @ @ % @ @ + + + & > 1 8 0 0 q q 0 q 0 0 q f n J m t 5 & @ & 1 7 8 0 0 8 8 8 8 8 8 8 ",
"8 8 8 8 0 0 8 3 1 > & @ + o o + % & & - - - - - - - - & & & - 1 2 8 0 e u f i e q 0 0 u p c k 9 1 & @ & 1 3 8 0 8 8 8 8 0 0 8 8 ",
"8 8 8 0 0 0 8 7 3 1 , - @ + + % - , 1 1 1 1 1 1 1 1 1 1 1 1 1 2 3 8 q u k b b p u 0 0 q u u q 7 ; % @ & 1 7 8 0 8 8 8 8 8 8 8 8 ",
"8 8 8 8 8 8 8 8 8 7 2 , & + + & , 2 3 8 8 7 7 7 7 7 7 3 3 3 7 8 8 0 q p n J P n f q 0 0 0 q 8 2 - @ @ & 1 3 8 0 0 8 8 8 8 8 8 8 ",
"8 8 8 8 8 8 8 0 8 8 3 1 & @ @ & 1 3 8 0 0 8 8 8 8 8 8 8 8 8 8 8 8 0 e p A E E M p q 8 8 8 8 7 1 & @ % & 1 7 8 0 0 8 8 8 8 8 8 8 ",
"8 8 8 8 8 8 8 0 0 0 8 1 - @ @ - 1 7 0 0 0 0 0 0 0 0 0 0 0 0 0 0 8 0 e p A Q Q A p q 8 8 8 8 3 1 & @ + & 1 7 8 8 0 8 8 8 8 8 8 8 "
};
