/* XPM */
static char *out[] = {
/* columns rows colors chars-per-pixel */
"64 64 161 2 ",
"   c #333333",
".  c #3C3733",
"X  c #493633",
"o  c #443A35",
"O  c #4D3F36",
"+  c #564337",
"@  c #5C4637",
"#  c #5E5A3E",
"$  c #684C37",
"%  c #664B38",
"&  c #694C3A",
"*  c #63543B",
"=  c #262D46",
"-  c #282E46",
";  c #272E48",
":  c #282D4A",
">  c #283047",
",  c #26304B",
"<  c #2B324E",
"1  c #31374F",
"2  c #2E3552",
"3  c #2F3857",
"4  c #2F3A58",
"5  c #303754",
"6  c #333A54",
"7  c #323B5A",
"8  c #383D5A",
"9  c #373F63",
"0  c #393F63",
"q  c #37415C",
"w  c #38425D",
"e  c #374162",
"r  c #3A4266",
"t  c #3F4865",
"y  c #3B4569",
"u  c #3F496C",
"i  c #715540",
"p  c #765A44",
"a  c #7A5E48",
"s  c #4F6F46",
"d  c #566844",
"f  c #5A6B47",
"g  c #497D4D",
"h  c #547349",
"j  c #7F6147",
"k  c #7E6149",
"l  c #414B66",
"z  c #414C6C",
"x  c #494F69",
"c  c #46516D",
"v  c #48546E",
"b  c #444E71",
"n  c #465375",
"m  c #495473",
"M  c #4B5776",
"N  c #4D5C7D",
"B  c #515F7C",
"V  c #4F607E",
"C  c #52617E",
"Z  c #803B34",
"A  c #9A4737",
"S  c #AC4537",
"D  c #C74336",
"F  c #CD4336",
"G  c #CD4338",
"H  c #D24536",
"J  c #D54538",
"K  c #DB4739",
"L  c #DF4939",
"P  c #E64B3D",
"I  c #E84C3D",
"U  c #85674F",
"Y  c #8B6F54",
"T  c #8F7157",
"R  c #8F7159",
"E  c #977A5D",
"W  c #CF5B42",
"Q  c #DB5440",
"!  c #EB5E4A",
"~  c #C46444",
"^  c #EE6752",
"/  c #ED7158",
"(  c #EE7A60",
")  c #379757",
"_  c #399557",
"`  c #389658",
"'  c #30A45D",
"]  c #2AAC61",
"[  c #27B163",
"{  c #28B163",
"}  c #2ABA66",
"|  c #2ABE68",
" . c #35B96B",
".. c #439C5C",
"X. c #5B955B",
"o. c #749C5D",
"O. c #67A45F",
"+. c #4EB566",
"@. c #49BC79",
"#. c #77A76D",
"$. c #2DCC6F",
"%. c #31C46C",
"&. c #3BC56E",
"*. c #2DCC70",
"=. c #48CE79",
"-. c #898C55",
";. c #A48556",
":. c #A58869",
">. c #B49674",
",. c #B79B78",
"<. c #80AA72",
"1. c #91B172",
"2. c #BAA07B",
"3. c #F18C6E",
"4. c #F49F7E",
"5. c #515E80",
"6. c #546483",
"7. c #586786",
"8. c #5B6983",
"9. c #576788",
"0. c #586789",
"q. c #5B6A8B",
"w. c #5F6F90",
"e. c #616D86",
"r. c #65728A",
"t. c #637391",
"y. c #6B7A99",
"u. c #717F98",
"i. c #6F809A",
"p. c #73839C",
"a. c #51BF80",
"s. c #62D182",
"d. c #70D285",
"f. c #78CE9D",
"g. c #CBAF8A",
"h. c #CFB48D",
"j. c #D1B38C",
"k. c #D8B793",
"l. c #D6BD94",
"z. c #D8BC93",
"x. c #F5A884",
"c. c #E1C49A",
"v. c #E7CA9E",
"b. c #ECCC9E",
"n. c #F9C49A",
"m. c #ECCDA1",
"M. c #FCCDA2",
"N. c #E4DDA9",
"B. c #F5D6A8",
"V. c #F4D7A8",
"C. c #FBDCAE",
"Z. c #FEDFB0",
"A. c #FFE1AF",
"S. c #FFE0B1",
"D. c #AEE0C3",
"F. c #BBE5CD",
"G. c #CAEBD8",
"H. c #D6F1E3",
"J. c #E5F6EC",
"K. c #F2FAF6",
"L. c #FFFFFF",
/* pixels */
"y y y y y y y y y y r 7 2 - - < 7 r r y y y y r r r u n 5.6.0.5.n u 0 r r r y r 0 y y y y y e 6 2 : ; 2 7 e y y u r u n 6.0.q.w.",
"r r r r r r r y y y e 7 < : : < 7 9 r y y r r r r r u n B 6.9.5.n u y 0 r r 0 y r r r r r r e 7 5 : : 2 7 e y r r r u m N 6.q.q.",
"0 9 9 9 9 9 e r e e 8 6 < ; > < 3 8 e 0 e 9 9 e r r u n N 5.5.N m y r y r r r y r r 9 0 e e 8 3 2 : ; < 3 7 e e q e r l m N C 6.",
"7 7 7 7 7 7 7 7 7 7 6 2 ; = = ; 2 2 3 7 6 7 7 7 0 e u b n N N n b t y y y y r 0 7 7 4 4 7 3 6 < : ; ; : 2 3 7 7 6 7 7 w l z z n ",
"< < < < < < < < < < < : ; = = = : : 2 < 2 < 2 7 9 e y z b m n b u t r r r r r 8 3 2 < < < < < : = = = = > < < < 3 < 2 6 7 8 q w ",
": : : : : : : : : - : : ; ; ; ; : : - : = ; < 3 & & & & & & & & & & & & & & & & & < : = : ; : , = ; ; ; = ; = - = ; > > < < < < ",
"< < < < 2 < < < < < < < < 2 2 : 5 & & & % & & & & & & & & & & & & & & & & & & $ & % & & & & % < 2 < < < < < < < : 2 < < < < < < ",
"w w w w w w w q w q w 7 q q r & & & & # d g g g _ _ _ _ _ _ _ _ _ _ ) ` _ ) ) _ s ..g s # % & % $ q w q w q w w e 8 w q w q q q ",
"v v v v v v v v v v v m v m & & * g _ ] ] ] { { { [ { { [ { [ { { { { { { [ { { { { { { ] _ g i & & v v v v v v v v v v c c c c ",
"C C C C C C C 6.C C C N B & $ g ] { ] { { { { { { { { { { { [ [ { { { { { { { { { { { [ { ] { ] g & & B B 6.B C C C C C C C C C ",
"6.6.6.6.6.6.6.6.6.6.6.6.& & s ] { { { ] { { { { { { { { [ { [ [ { { { { { [ { { { { { { { { [ [ [ s & & 6.6.6.6.6.6.6.6.6.6.6.6.",
"V V N N N N N N B 5.N N & & ' { { { { { { { { { { { { [ { { [ [ { { { { { ] { { { { { { { { { { { ' & % 6.N 5.5.N C C B C V N N ",
"M n n n n n n n n n n n & * ] { { { { { { { ] { { { { { [ [ [ [ { [ [ [ { { { { { [ { { { { { { { { & & n n n n n n n n m m n n ",
"u u u u u u u u u z u u & & { { { { { { { { { { { ] {  .f.F.G.G.G.G.F.f.{ { { { [ { { ] { { { { { { & & u u u u u u u u u u u u ",
"r r y y y z u z z u u u & & { { { { { { { { { { { { f.J.L.L.L.L.L.L.L.L.H.a.[ { { { { { { { { { { { & & 9 9 r r r r r r r r r r ",
"e r y u z n n n n n n z & & [ { { { { { { { { { { a.K.L.L.L.L.L.L.L.L.L.L.J.@.{ { { { { { { { { [ { & & 3 3 3 7 9 e r e r r r r ",
"r r r l n N N B B N N n & & { { { { { { { { { {  .K.L.L.L.L.L.L.L.L.L.L.L.L.H. .{ { ] [ { { { { [ { & & : : < 3 7 r r y r r r r ",
"r r u n N C 6.6.9.6.B M & & { { { { { { { { { [ D.L.L.L.L.L.L.L.L.L.L.L.L.L.L.D.{ { { [ { { { { [ { & & - : < 2 7 e r r r r r r ",
"r e u z N C 0.7.6.0.6.N & & { { { ] [ { { { { { K.L.L.L.L.L.L.L.L.L.L.L.L.L.L.K.{ { [ [ { { { { { { & & 1 6 6 8 8 e r r r r r y ",
"r y u n n N C 5.5.5.N n & & { { } } } { } | | | | | | | | | | | | | | | | } | | | | | } } } { { { { & & c v v l r 8 7 8 e r y y ",
"r y r z z n n n M n n b * & *.*.*.*.*.*.*.*.*.*.*.*.*.*.*.*.*.*.*.*.*.*.*.$.*.*.*.*.*.*.$.*.*.*.*.*.& & 8.r.e.B l 8 3 3 8 e y r ",
"r r r y y y y z u y y y & & *.*.*.*.*.*.*.*.*.*.*.*.*.*.*.*.*.*.*.*.*.*.*.*.*.*.*.*.*.*.*.*.*.*.*.*.& & p.p.i.r.v 5 < 2 7 e 0 u ",
"9 9 e e r 7 r 0 e q r r & & *.*.*.*.*.*.*.*.*.*.*.*.*.*.*.*.*.*.*.$.*.*.*.*.*.*.*.*.*.*.*.*.*.$.*.*.& & p.p.u.C l 5 ; : 2 7 r e ",
"7 7 4 4 5 3 3 5 5 5 7 7 & &  .*.*.*.*.*.*.*.*.*.*.*.*.*.*.*.*.*.*.*.*.*.*.*.*.*.*.*.*.*.*.*.*.$.*. .& & e.r.8.M w < ; ; < 3 4 7 ",
"< 2 ; < < < < : : - < 5 & $ h *.*.*.*.*.*.*.*.*.*.*.*.*.*.*.*.*.*.*.*.*.*.*.*.*.*.*.*.*.$.*.$.$.*.h & & v v l q 5 - = = ; 2 < < ",
": : : ; : : : : : : 2 2 4 & & & & & m.Z.S.S.S.S.Z.S.S.S.S.S.S.S.Z.Z.S.S.S.S.S.S.S.Z.S.Z.S.S.:.& & & & & w 8 5 < ; : > = ; ; : = ",
"< 2 2 < < < > 1 5 3 5 & & & & & & :.Z.Z.S.S.S.S.S.S.S.S.S.S.S.S.Z.S.S.S.S.S.S.Z.S.S.S.S.S.S.m.& & & & & $ 6 6 5 1 < < < < < 2 : ",
"q w w 7 w w w l x x & $ T >.2.& U B.Z.Z.S.c.R R c.S.S.S.S.S.S.S.S.S.S.S.S.S.S.c.R T z.S.S.S.S.>.& 2.>.Y & & v l t w w w q w q e ",
"v v v v l v M B 8.e.& k j.l.l.k c.Z.S.S.Z.R & & R S.S.S.S.S.S.S.S.S.S.C.S.S.S.T & & R S.S.S.S.S.U l.l.j.U $ e.8.C M v v v v m v ",
"C C C C C C 9.t.u.$ & 2.l.z.l.V.S.S.S.S.Z.& & & & S.S.S.S.S.S.Z.S.S.S.S.S.S.S.& & & % S.S.S.S.S.V.l.l.l.2.& $ y.t.6.C B C C C C ",
"6.6.6.6.5.6.q.y.p.& & l.l.l.l.S.S.S.S.S.S.& & & & S.S.S.S.S.S.Z.S.S.S.S.S.S.S.& % & & S.S.Z.S.S.S.l.l.l.l.& & p.y.q.6.6.5.6.6.0.",
"N N C N 5.5.6.t.p.& & z.l.l.l.S.S.S.S.S.S.U & & U S.S.S.S.Z.m.c.c.v.C.S.S.S.S.U & & U S.Z.S.S.S.Z.l.l.l.z.& $ p.t.7.5.N 5.5.5.B ",
"n m n n n n N 6.t.& & 2.l.l.z.B.S.A.S.S.S.c.i i c.Z.S.S.Z.B.l.l.l.l.b.S.S.S.S.c.i & l.Z.S.S.S.S.B.l.l.z.2.& % t.6.N n m n n n n ",
"y u z u u z b N 9.q.& k j.z.l.B.A.S.S.S.S.S.S.S.Z.S.S.m.,.l.l.l.l.l.l.2.c.S.S.S.S.S.Z.S.S.S.S.S.B.l.l.j.j & q.6.N b u u r u u u ",
"y r r r r r u n 5.6.% & p 2.z.B.S.S.S.S.S.S.S.S.S.S.j.& & :.l.l.l.l.>.& & g.S.S.S.A.S.S.S.S.S.S.V.l.2.p % & 6.N n z r r r r r r ",
"0 y r r 9 r u n N 6.B & & & & >.S.S.S.S.S.S.S.S.Z.z.& & & & & & & & & & & $ g.S.S.S.S.S.S.S.S.S.>.& & & & B 6.N n z 0 r r r r r ",
"r y 0 r e r u n 5.C C v w & & T S.S.S.S.S.S.S.S.S.a & & & & & & & & & & & & i S.S.S.S.S.S.Z.S.S.>.& & q v B 6.N n u r e r r r r ",
"r r r r r r u n N 6.N v w 1 & U S.S.S.S.S.S.S.S.S.i & & & & & & & & & & $ & i S.S.S.S.S.S.S.S.S.a & < w v B 6.N n u r r r r r r ",
"r r y 0 r r y n B 6.C v w & & & c.Z.S.S.S.S.S.S.S.m.>.R & & & & & & & & T >.m.S.S.S.S.S.Z.S.S.c.& & & q v B 6.5.n u r r r r r r ",
"y r t r r y z n 6.7.C v & & f ' X.M.S.S.S.S.S.S.S.S.Z.S.S.S.S.A.S.S.S.S.S.S.S.S.S.S.S.S.S.S.M.#...f & & v 6.9.5.n z y r r y r y ",
"y y r r r y z m 5.6.6.& % f *.*.*.;./ / / / / / 1.s.s.s.s.s.s.s.s.s.s.s.s.s.s.1./ / / / / / ;.*.*.*.f & & 6.7.5.M u y r r y y y ",
"r r r r r r u M C 6.C & * %.*.*.*.*.-.I I I P I W &.*.*.*.$.*.*.*.*.$.*.$.$.&.W I I I I I -.$.*.*.*.%.* & C 6.N n u r r r r r r ",
"e 9 9 9 9 r r z M N & & ..*.$.*.s.s.=.o.Q I Q I P W +.*.*.*.*.$.*.*.*.*.$.+.W P I Q I Q o.=.s.s.*.$.$...& & B n z y e e 9 r 9 9 ",
"7 8 7 7 4 7 8 9 t t & & %.$.d.V.S.S.S.S.n.^ Q I I I I ~ O.&.*.*.$.*.&.O.~ I I I I I ^ b.S.S.S.S.V.d.$.%.& & l l e 7 7 6 3 7 7 7 ",
": 2 < 2 < 3 2 6 8 q & & *.d.S.S.S.S.S.S.Z.M.Q I I I I I I I I I I I I P I I I I I I M.S.S.S.S.S.S.S.d.*.& & 8 6 5 2 < < < < < < ",
": = ; ; ; ; ; ; , < & & *.N.S.S.S.S.S.S.Z.Z.I I I I I I I I I I I I I P I I I I I I S.A.A.S.S.S.S.S.N.%.& % < < : : ; : = ; : : ",
"; ; ; ; ; ; ; ; ; = & & <.S.S.S.S.S.S.S.S.S.I I I I I I P J H H H H K P I I I I I I Z.Z.S.A.S.S.S.S.S.#.& & < < 2 < < < < < < < ",
"< 2 < ; ; = = ; > < 3 & ,.S.S.S.S.S.S.S.S.x.I I I I I K F F F G G F F F K I I I I I n.Z.S.S.S.S.S.S.S.,.& 8 8 q q q w w w w w w ",
"7 6 6 2 > ; ; > 3 3 7 & E A.A.S.S.S.S.S.S.x.I I I I P F F F F F F F F F F L I I I I 4.Z.S.S.S.S.S.S.S.E & l c x v v v v v v v v ",
"r 9 8 3 < : ; < 6 8 e & U S.S.S.S.S.S.S.B.! I I I P F F G G F F F F F F F F P I I P ! C.S.S.S.S.S.S.S.U & M C 6.5.5.6.C C C C C ",
"y r 9 5 5 : > < 7 e r & & m.S.S.S.S.Z.Z.( I I I I F F F J G G G F F F F F F H P I I I ( S.S.S.S.S.S.m.& & B 9.q.7.6.6.6.6.6.6.6.",
"y y r 7 2 : : < 7 9 r & & T B.S.S.S.S.x.I I I I P F F D S S Z S A A A S D F F L I I I I x.S.A.S.S.V.R & % 6.q.9.0.6.N N V V N N ",
"y y e 7 < = = < 7 r y y & & T h.j.k.3.I I I I Q F F $ X $ $ & & & & & & X Z F J I I I I I 3.k.h.j.R & & v 6.7.9.5.n n n n n n n ",
"y r e 7 2 : ; < 6 e r y y & & &                         @ $ 0 8 2 : & @                         & & & w v C 6.B n b u u u u u u ",
"y r e 7 2 < < 2 7 8 0 e r e & &                         @ & 8 5 3 : & @                         & & < 8 x N 6.N n u r r r r r r ",
"y r e q 7 5 2 2 6 7 7 7 7 7 & & O                     o $ & 1 2 2 2 & & .                     + & & < 5 t n M n n y r r r r r r ",
"y r r e r 7 7 5 2 2 < < 2 2 2 & & @ + . .         o + & & & < 2 3 7 % & & @ o o           O @ & & : ; 2 e z b n u y r r r r r r ",
"r r r r r e 8 5 2 < : ; ; : : - & & % & & & & & & & & & ; ; < 2 7 9 e r & & & & & % i % & & & & q 2 ; 2 8 r u u y y r r r r r r ",
"r r r r y y r 8 2 < ; ; ; ; : ; ; : & & & & & & & & : ; ; ; < 5 4 r y y z u & & & & & & & & N v q 2 ; 2 7 e r y y r r r y y r r ",
"r r r r y y r e 7 2 < ; ; = = ; > < < 2 2 2 2 2 2 2 2 < < < 2 7 8 0 y z z m n z u y y b n M M y 4 < ; < 7 9 r y r r r r y y r r ",
"r r r y y y r e 9 8 5 5 : ; ; ; 2 6 7 7 7 7 7 7 7 7 7 7 7 7 7 8 0 r u b M N N n x y y u b b u 9 4 ; : < 7 e r y y r 0 y 0 r r r ",
"r r r r r r y r r e 8 5 < ; ; < 5 8 e r r e e e e e e 9 9 r e r r r u n N N 5.N m u y y y y r 8 2 = ; 2 3 9 r y y r r r r r r r ",
"r r r r r r r y r r 9 7 2 : ; < 7 e r y y r r r r r r r r r r r r y z n C 6.6.N n u r r r r e 7 2 : : 2 7 e r y y 0 y 0 e r r r ",
"r r r r r r r y y y 0 4 2 : ; 2 7 e y y y y y y y y y y y y y y r y z n B 0.6.N n u r r r r 9 4 < : ; , 7 r r 0 t 0 0 y y r r r "
};
