/* XPM */
static char *_200d68cacf94cc796acdd03ea46b59eLeUui2bVGANa466c[] = {
/* columns rows colors chars-per-pixel */
"64 64 131 2 ",
"   c None",
".  c gray20",
"X  c #363433",
"o  c #393633",
"O  c #3D3734",
"+  c #493633",
"@  c #403934",
"#  c #433A34",
"$  c #473C35",
"%  c #4E3F36",
"&  c #544236",
"*  c #584437",
"=  c #5B4537",
"-  c #5E4737",
";  c #654A38",
":  c #684B38",
">  c #694B39",
",  c #684C38",
"<  c #694C39",
"1  c #64523B",
"2  c #65543C",
"3  c #60583E",
"4  c #5C5E40",
"5  c #725540",
"6  c #765A44",
"7  c #7B5E48",
"8  c #586543",
"9  c #546B45",
"0  c #5A6C47",
"q  c #4C784A",
"w  c #487E4D",
"e  c #507148",
"r  c #56744A",
"t  c #7D6149",
"y  c #803B34",
"u  c #9B4737",
"i  c #AD4536",
"p  c #C64335",
"a  c #CD4335",
"s  c #CE4335",
"d  c #D14436",
"f  c #D34536",
"g  c #D64637",
"h  c #DA4738",
"j  c #DD4839",
"k  c #DE4939",
"l  c #DB543F",
"z  c #E34A3B",
"x  c #E74C3C",
"c  c #85674F",
"v  c #8B6F55",
"b  c #8E7157",
"n  c #977A5E",
"m  c #CF5C42",
"M  c #EA5E4A",
"N  c #C46445",
"B  c #EB6751",
"V  c #ED7159",
"C  c #EE7A60",
"Z  c #3C9155",
"A  c #389757",
"S  c #2CAA5F",
"D  c #30A45C",
"F  c #28B162",
"G  c #29B664",
"H  c #29B765",
"J  c #2ABB67",
"K  c #2BBE69",
"L  c #35B56B",
"P  c #35BC6A",
"I  c #449C5C",
"U  c #5C955C",
"Y  c #739C5D",
"T  c #50B467",
"R  c #42BA75",
"E  c #50BF7F",
"W  c #67A460",
"Q  c #77A76B",
"!  c #31C46D",
"~  c #39C46D",
"^  c #2ECC71",
"/  c #48CE79",
"(  c #8A8C56",
")  c #A38557",
"_  c #A18366",
"`  c #A68B6B",
"'  c #AA8C6D",
"]  c #B49675",
"[  c #B49976",
"{  c #BD9F7C",
"}  c #81AA73",
"|  c #90B173",
" . c #BBA07C",
".. c #F18C6F",
"X. c #F49F7D",
"o. c #62D181",
"O. c #6FD285",
"+. c #78CE9C",
"@. c #C6A884",
"#. c #D0B18B",
"$. c #D0B58D",
"%. c #CFB691",
"&. c #D7B692",
"*. c #D7BD93",
"=. c #D9BB93",
"-. c #F6A885",
";. c #E1C59A",
":. c #E2C49A",
">. c #E6CA9E",
",. c #EECC9E",
"<. c #FAC49B",
"1. c #E8CCA0",
"2. c #ECCDA2",
"3. c #FCCDA2",
"4. c #E4DDA9",
"5. c #F0D2A5",
"6. c #F2D5A7",
"7. c #F5D6A9",
"8. c #F5D7A9",
"9. c #FDD6A9",
"0. c #F1DEAD",
"q. c #FADBAD",
"w. c #FCDDAF",
"e. c #FFE0B1",
"r. c #AEE1C4",
"t. c #BBE6CD",
"y. c #C9EBD7",
"u. c #D6F0E1",
"i. c #E4F5EB",
"p. c #F1FAF5",
"a. c white",
/* pixels */
"                                                                                                                                ",
"                                                                                                                                ",
"                                                                                                                                ",
"                                                                                                                                ",
"                                                                                                                                ",
"                                                < < < < < < < < < < < < < < < < :                                               ",
"                                  : < < < < < < < < < < < < < < < < < < < < < < < < < < < < :                                   ",
"                              : < < < 3 8 w w w Z A A A A A A A A A A A A A A A w w w 9 4 < < < :                               ",
"                            < < 3 q Z D F F F F F F F F F F F F F F F F F F F F F F F F S A w 3 < <                             ",
"                          < < q S F F F F F F F F F F F F F F F F F F F F F F F F F F F F F F S w < <                           ",
"                        : < e F F F F F F F F F F F F F F F F F F F F F F F F F F F F F F F F F F e < :                         ",
"                        < < D F F F F F F F F F F F F F F F F F F F F F F F F F F F F F F F F F F D < <                         ",
"                        < 1 F F F F F F F F F F F F F F F F F F F F F F F F F F F F F F F F F F F F < <                         ",
"                        < < F F F F F F F F F F F F F L +.t.y.y.y.y.t.+.F F F F F F F F F F F F F F < <                         ",
"                        < < F F F F F F F F F F F F +.i.a.a.a.a.a.a.a.a.u.E F F F F F F F F F F F F < <                         ",
"                        < < F F F F F F F F F F F E p.a.a.a.a.a.a.a.a.a.a.i.E F F F F F F F F F F F < <                         ",
"                        < < F F F F F F F F F F R p.a.a.a.a.a.a.a.a.a.a.a.a.u.L F F F F F F F F F F < <                         ",
"                        < < F F F F F F F F F F r.a.a.a.a.a.a.a.a.a.a.a.a.a.a.r.F F F F F F F F F F < <                         ",
"                        < < F F F F F F F F F F p.a.a.a.a.a.a.a.a.a.a.a.a.a.a.p.F F F F F F F F F F < <                         ",
"                        < < F F H H H H H K K K K K K K K K K K K K K K K K K K K K K J H H H H F F < <                         ",
"                        < < ^ ^ ^ ^ ^ ^ ^ ^ ^ ^ ^ ^ ^ ^ ^ ^ ^ ^ ^ ^ ^ ^ ^ ^ ^ ^ ^ ^ ^ ^ ^ ^ ^ ^ ^ ^ < <                         ",
"                        < < ^ ^ ^ ^ ^ ^ ^ ^ ^ ^ ^ ^ ^ ^ ^ ^ ^ ^ ^ ^ ^ ^ ^ ^ ^ ^ ^ ^ ^ ^ ^ ^ ^ ^ ^ ^ < <                         ",
"                        < < ^ ^ ^ ^ ^ ^ ^ ^ ^ ^ ^ ^ ^ ^ ^ ^ ^ ^ ^ ^ ^ ^ ^ ^ ^ ^ ^ ^ ^ ^ ^ ^ ^ ^ ^ ^ < <                         ",
"                        < < P ^ ^ ^ ^ ^ ^ ^ ^ ^ ^ ^ ^ ^ ^ ^ ^ ^ ^ ^ ^ ^ ^ ^ ^ ^ ^ ^ ^ ^ ^ ^ ^ ^ ^ P < <                         ",
"                        : < r ^ ^ ^ ^ ^ ^ ^ ^ ^ ^ ^ ^ ^ ^ ^ ^ ^ ^ ^ ^ ^ ^ ^ ^ ^ ^ ^ ^ ^ ^ ^ ^ ^ ^ r < :                         ",
"                          < < < < < 2.e.e.e.e.e.e.e.e.e.e.e.e.e.e.e.e.e.e.e.e.e.e.e.e.e.e.e._ < < < < :                         ",
"                      : < < < < < ' e.e.e.e.e.e.e.e.e.e.e.e.e.e.e.e.e.e.e.e.e.e.e.e.e.e.e.e.2.< < < < < :                       ",
"                    : < v [  .< c 7.e.e.e.:.b b :.e.e.e.e.e.e.e.e.e.e.e.e.e.e.:.b b =.e.e.e.e.] <  .[ v < :                     ",
"                    < t $.*.*.7 :.e.e.e.e.b < < b e.e.e.e.e.e.e.e.e.e.e.e.e.e.b < < b e.e.e.e.e.c *.*.$.t <                     ",
"                  : <  .*.*.*.7.e.e.e.e.e.< < < < e.e.e.e.e.e.e.e.e.e.e.e.e.e.< < < < e.e.e.e.e.7.*.*.*. .< :                   ",
"                  < < *.*.*.*.e.e.e.e.e.e.< < < < e.e.e.e.e.e.e.e.e.e.e.e.e.e.< < < < e.e.e.e.e.e.*.*.*.*.< <                   ",
"                  < < *.*.*.*.e.e.e.e.e.e.c < < c e.e.e.e.e.1.:.:.>.w.e.e.e.e.c < < c e.e.e.e.e.w.*.*.*.*.< <                   ",
"                  : <  .*.*.*.q.e.e.e.e.e.:.5 5 :.e.e.e.e.5.*.*.*.*.1.e.e.e.e.:.5 < =.e.e.e.e.e.7.*.*.*. .< :                   ",
"                    < t $.*.*.7.e.e.e.e.e.e.e.e.e.e.e.2.{ *.*.*.*.*.*.{ :.e.e.e.e.e.e.e.e.e.e.e.7.*.*.$.t <                     ",
"                    : < 6  .*.5.e.e.e.e.e.e.e.e.e.e.#.< < ` *.*.*.*.[ < < #.e.e.e.e.e.e.e.e.e.e.6.*. .6 < :                     ",
"                      < < < < ] e.e.e.e.e.e.e.e.e.=.< < < < < < < < < < < < @.e.e.e.e.e.e.e.e.e.] < < < <                       ",
"                          : < b e.e.e.e.e.e.e.e.e.7 < < < < < < < < < < < < 5 e.e.e.e.e.e.e.e.e.] < :                           ",
"                            < c e.e.e.e.e.e.e.e.e.5 < < < < < < < < < < < < 5 e.e.e.e.e.e.e.e.e.7 <                             ",
"                          < < < :.e.e.e.e.e.e.e.e.2.] b < < < < < < < < b ] 2.e.e.e.e.e.e.e.e.:.< < <                           ",
"                        < < 0 I U 3.e.e.e.e.e.e.e.e.e.e.e.e.e.e.e.e.e.e.e.e.e.e.e.e.e.e.e.e.3.Q I 0 < <                         ",
"                      : < 0 ^ ^ ^ ) V V V V V V | o.o.o.o.o.o.o.o.o.o.o.o.o.o.| V V V V V V ) ^ ^ ^ 0 < :                       ",
"                      < 2 ! ^ ^ ^ ^ ( x x x x x m ~ ^ ^ ^ ^ ^ ^ ^ ^ ^ ^ ^ ^ ~ m x x x x x ( ^ ^ ^ ^ ! 2 <                       ",
"                    < < I ^ ^ ^ o.o./ Y l x x x x m T ^ ^ ^ ^ ^ ^ ^ ^ ^ ^ T m x x x x l Y / o.o.^ ^ ^ I < <                     ",
"                    < < ! ^ O.0.e.e.e.e.,.B x x x x x N W ~ ^ ^ ^ ^ ~ W N x x x x x B ,.e.e.e.e.0.O.^ ! < <                     ",
"                    < < ^ O.e.e.e.e.e.e.e.3.x x x x x x x x x x x x x x x x x x x x 3.e.e.e.e.e.e.e.O.^ < <                     ",
"                    : < ! 4.e.e.e.e.e.e.e.e.x x x x x x x x x x x x x x x x x x x x e.e.e.e.e.e.e.e.4.! < :                     ",
"                    < < } e.e.e.e.e.e.e.e.e.x x x x x x z h d d d d h z x x x x x x e.e.e.e.e.e.e.e.e.} < <                     ",
"                      < ] e.e.e.e.e.e.e.e.<.x x x x x h a a a a a a a a h x x x x x <.e.e.e.e.e.e.e.e.] <                       ",
"                      < n e.e.e.e.e.e.e.e.X.x x x x k a a a a a a a a a a k x x x x X.e.e.e.e.e.e.e.e.n <                       ",
"                      < c e.e.e.e.e.e.e.9.M x x x z a a a a a a a a a a a a z x x x M 9.e.e.e.e.e.e.e.c <                       ",
"                      < < 2.e.e.e.e.e.e.C x x x x d a a a a a a a a a a a a d x x x x C e.e.e.e.e.e.2.< <                       ",
"                      : < b 7.e.e.e.e.-.x x x x k a a p i u u u u u u i p a a k x x x x -.e.e.e.e.7.b < :                       ",
"                        < < b #.%.&...x x x x x g a y + < < < < < < < < + y a g x x x x x ..&.%.#.b < <                         ",
"                          : < < . . . . . . . . . . . . = <         < = . . . . . . . . . . . . < < :                           ",
"                            < < . . . . . . . . . . . . = <         < = . . . . . . . . . . . . < <                             ",
"                            < < % . . . . . . . . . . @ ; <         < < O . . . . . . . . . . & < <                             ",
"                              < < - % @ o . . . X $ & < < :         : < < = $ @ . . . . o % - < <                               ",
"                                < < < < < < < < < < < <                 < < < < < < < < < < < <                                 ",
"                                    : < < < < < < <                         < < < < < < < <                                     ",
"                                                                                                                                ",
"                                                                                                                                ",
"                                                                                                                                ",
"                                                                                                                                ",
"                                                                                                                                "
};
