/* XPM */
static char *ed065f3cbb914eabae6107feaa8c35039gbRhhxu2ojmLkSh[] = {
/* columns rows colors chars-per-pixel */
"64 64 229 2 ",
"   c #804036",
".  c #824037",
"X  c #7F3F36",
"o  c #763C35",
"O  c #663633",
"+  c #532F31",
"@  c #472A30",
"#  c #542F31",
"$  c #773C35",
"%  c #803F36",
"&  c #834137",
"*  c #814036",
"=  c #7F3F37",
"-  c #804037",
";  c #814037",
":  c #7E3F37",
">  c #643634",
",  c #753C36",
"<  c #7D3F37",
"1  c #7F4037",
"2  c #7B3F38",
"3  c #7C3F37",
"4  c #7E4037",
"5  c #663634",
"6  c #542F32",
"7  c #462A30",
"8  c #522F32",
"9  c #633534",
"0  c #723B36",
"q  c #7B3F37",
"w  c #7D4038",
"e  c #7D3F38",
"r  c #773E38",
"t  c #783E38",
"y  c #793F38",
"u  c #7C3F38",
"i  c #763C36",
"p  c #472A31",
"a  c #462A31",
"s  c #502E33",
"d  c #603535",
"f  c #6F3B37",
"g  c #793F39",
"h  c #743E39",
"j  c #763E39",
"k  c #7A3F38",
"l  c #7E4038",
"z  c #452A31",
"x  c #4F2E33",
"c  c #5F3536",
"v  c #6D3B38",
"b  c #763F39",
"n  c #753E39",
"m  c #733E3A",
"M  c #723E3A",
"N  c #773C36",
"B  c #673634",
"V  c #452A32",
"C  c #4F2E34",
"Z  c #5E3536",
"A  c #6B3B38",
"S  c #753F3A",
"D  c #743E3A",
"F  c #7A3F39",
"G  c #7F4038",
"H  c #783D36",
"J  c #552F32",
"K  c #5E3537",
"L  c #6C3B39",
"P  c #763F3A",
"I  c #7B4039",
"U  c #7F4138",
"Y  c #683634",
"T  c #4F2F34",
"R  c #5F3537",
"E  c #6D3B39",
"W  c #743F3A",
"Q  c #76403B",
"!  c #723D39",
"~  c #723D3A",
"^  c #6B3A38",
"/  c #713B37",
"(  c #743C37",
")  c #743C36",
"_  c #6E3935",
"`  c #613433",
"'  c #512E32",
"]  c #452931",
"[  c #442932",
"{  c #4C2D33",
"}  c #593336",
"|  c #653838",
" . c #6B3B39",
".. c #6D3C39",
"X. c #613535",
"o. c #643635",
"O. c #643534",
"+. c #603334",
"@. c #563033",
"#. c #4A2B31",
"$. c #422831",
"%. c #412831",
"&. c #472B33",
"*. c #502F34",
"=. c #5D3537",
"-. c #5F3637",
";. c #5D3436",
":. c #512F34",
">. c #512F33",
",. c #522F33",
"<. c #532F33",
"1. c #502D32",
"2. c #4A2B32",
"3. c #432931",
"4. c #3F2731",
"5. c #3E2731",
"6. c #412932",
"7. c #4C2E33",
"8. c #4E2F34",
"9. c #4E2E34",
"0. c #462A32",
"q. c #402831",
"w. c #422931",
"e. c #432A32",
"r. c #442B32",
"t. c #452B32",
"y. c #3D2631",
"u. c #462B31",
"i. c #3A2530",
"p. c #3C2630",
"a. c #3F2730",
"s. c #442931",
"d. c #4B2B31",
"f. c #552F33",
"g. c #553032",
"h. c #502E32",
"j. c #4B2C32",
"k. c #603434",
"l. c #3E2730",
"z. c #783B36",
"x. c #542F33",
"c. c #653634",
"v. c #7F3E37",
"b. c #7E3F36",
"n. c #532F32",
"m. c #653635",
"M. c #7E3F38",
"N. c #824137",
"B. c #783C36",
"V. c #824036",
"C. c #623635",
"Z. c #713C37",
"A. c #7A4039",
"S. c #813F36",
"D. c #773F3A",
"F. c #753E3A",
"G. c #7D3F36",
"H. c #763B35",
"J. c #663533",
"K. c #7B3E37",
"L. c #803F35",
"P. c #3B2530",
"I. c #733E39",
"U. c #7D3E36",
"Y. c #5E3436",
"T. c #753F3B",
"R. c #743F3B",
"E. c #743E3B",
"W. c #763E3A",
"Q. c #753E3B",
"!. c #773F3B",
"~. c #7B403A",
"^. c #763F3B",
"/. c #723D3B",
"(. c #733D3B",
"). c #793F3A",
"_. c #783E39",
"`. c #3D2731",
"'. c #432932",
"]. c #4D2D33",
"[. c #5A3335",
"{. c #653837",
"}. c #6C3B38",
"|. c #6B3A39",
" X c #6B3A3A",
".X c #6C3A3A",
"XX c #6E3B39",
"oX c #713B39",
"OX c #753C37",
"+X c #593235",
"@X c #703B38",
"#X c #733B37",
"$X c #482B32",
"%X c #5D3437",
"&X c #5E3437",
"*X c #623536",
"=X c #643636",
"-X c #643535",
";X c #472B32",
":X c #613536",
">X c #633535",
",X c #3B2630",
"<X c #502E34",
"1X c #512E34",
"2X c #3D2630",
"3X c #442930",
"4X c #603433",
"5X c #422830",
"6X c #563032",
"7X c #502E31",
"8X c #452930",
"9X c #653633",
"0X c #814138",
"qX c #4E2E33",
"wX c #713C39",
"eX c #492C32",
"rX c #522F34",
"tX c #603537",
"yX c #633636",
"uX c #653636",
"iX c #613434",
"pX c #573033",
"aX c #532F34",
"sX c #522E32",
"dX c #4C2C32",
"fX c #462931",
"gX c #492B32",
"hX c #4E2D33",
"jX c white",
/* pixels */
"              . . X o O + @ @ # O $ % & . *                                   . . X o O + @ @ # O $ % & . *                     ",
"= = = = = = - ; . X o O + @ @ + O o X . ; - = = = = = = = = = = = = = = = = - ; . X o O + @ @ + O o X . ; - = = = = = = = = = = ",
": : : : : : : - ; = o O + @ @ + > , < - 1 : : : : : : : : : : : : : : : : : : - ; = o O + @ @ + > , < - 1 : : : : : : : : : : : ",
"2 2 2 2 2 2 3 4 - = o 5 6 @ 7 8 9 0 q w e 2 2 2 2 2 2 2 2 2 2 2 2 2 2 2 2 2 3 4 - = o 5 6 @ 7 8 9 0 q w e 2 2 2 2 2 2 2 2 2 2 2 ",
"r r r r r t y u 1 : i 5 6 p a s d f r g g t r r r r r r r r r r r r r r r t y u 1 : i 5 6 p a s d f r g g t r r r r r r r r r r ",
"h h h h h h j k l : i 5 6 p z x c v h b j n h h h h h h h h h h h h h h h h j k l : i 5 6 p z x c v h b j n h h h h h h h h h h ",
"m m m M M m n g w : N B 6 p V C Z A m S D m m m m m m m m m m m m m m M M m n g w : N B 6 p V C Z A m S D m m m m m m m m m m m ",
"m m m m m D j F G 1 H B J p V C K L D P S D m m m m m m m m m m m m m m m D j F G 1 H B J p V C K L D P S D m m m m m m m m m m ",
"D D D D D D b I U - H Y J p V T R E W Q P D D D D D D D D D D D D D D D D D b I U - H Y J p V T R E W Q P D D D D D D D D D D D ",
"! ! ! ~ ~ ! h g w < i 5 6 p V C K L m S D m ! ! ! ! ! ! ! ! ! ! ! ! ! ~ ~ ! h g w < i 5 6 p V C K L m S D m ! ! ! ! ! ! ! ! ! ! ",
"^ ^ ^ ^ ^ ^ v / ( ) _ ` ' ] [ { } |  ...E A ^ ^ ^ ^ ^ ^ ^ ^ ^ ^ ^ ^ ^ ^ ^ ^ v / ( ) _ ` ' ] [ { } |  ...E A ^ ^ ^ ^ ^ ^ ^ ^ ^ ^ ",
"c c c Z Z Z c X.o.O.+.@.#.$.%.&.*.} =.-.Z Z ;.;.;.;.;.;.;.;.Z Z c c c Z Z Z c X.o.O.+.@.#.$.%.&.*.} =.-.Z Z ;.;.;.;.;.;.;.;.;.;.",
":.:.:.*.C C x >.,.<.1.2.3.4.5.6.&.7.8.T T C C C C C C C 9.C C C *.:.:.*.C C x >.,.<.1.2.3.4.5.6.&.7.8.T T C C C C C C C C C C C ",
"V V V V V V V 0.0.a a 3.%.4.4.q.w.e.r.t.V V V V V V V V V V V V V V V V V V V 0.0.a a 3.%.4.4.q.w.e.r.t.V V V V V V V V V V V V ",
"y.5.4.%.3.z p p p p p p p p a a a u.u.a p p p p p p p p p p z 3.%.4.4.%.3.z p p p p p p p p a a a u.u.a p p p p p p p p p p p p ",
"i.p.a.s.d.' 6 J 6 6 6 J f.@.@.g.J 6 6 6 6 6 6 6 6 6 6 J J 6 h.2.s.a.a.s.d.' 6 J 6 6 6 J f.@.@.g.J 6 6 6 6 6 6 6 6 6 6 6 6 6 6 6 ",
"i.p.$.j.@.` 5 Y B 5 5 B B Y Y Y Y B B B B 5 5 5 5 5 B B Y 5 k.@.2.$.$.#.@.` 5 Y B 5 5 B B Y Y Y Y B B B B 5 5 5 5 5 5 5 5 5 5 5 ",
"i.l.] ' k._ i H H N i i i N N N N z.z.N N N i i i i N H H i _ k.h.] ] h.k._ i H H N i i i N N N N z.z.N N N i i i i i i i i i i ",
"i.5.a x.c., < - 1 : : < < < : : = v.v.= : : : < < < : - ; b.i c.n.p a <.O.) < - 1 : : < < < : : = v.v.= : : : < < < : : : X X X ",
"i.5.a x.m.( w U U l w w w w w M.M.M.M.M.l l w w w w l - N.  B.B 6 p 0.,.o.( w U U l w w w w w M.M.M.M.M.l l w w w w l 1 - ; * V.",
"i.5.0.<.C.Z.g I I A.F g g g g g F F F F F F F g g g k w - X $ B 6 p 0.>.X./ g I I A.F g g g g g F F F F F F F g g g k u : % S.* ",
"i.5.V :.c v h D.D.P S F.n n n n n n n n F.S S F.F.n j k < G.H.J.6 p V x c v h D.D.P S F.n n n n n n n n F.S S F.F.n j t K.b.X L.",
"P.5.V *.Z ^ m S S D D m m m m I.I.m m m m D D m m m n y < U.H.J.6 p V C Y.^ m S S D D m m m m I.I.m m m m D D m m m n t K.G.X L.",
"P.5.V :.c L m P T.W W D D D m m m m m D W W R.E.E.E.W.F l : $ B 6 p V C Z L m P T.W W D D D m m m m m D W W R.E.E.E.W.g u = % * ",
"i.5.V :.c L D P P S W W D D D D D D D D W W W E.E.Q.!.~.G 1 B.Y J p V C Z L D P P S W W D D D D D D D D W W W E.E.Q.^.F e - * V.",
"P.5.V *.Z ^ ! D D m ~ ~ ~ ! ! ! ! ! ! ! ~ ~ ~ ~ /.(.Q.).e < i 5 6 p V 9.;.^ ! D D m ~ ~ ~ ! ! ! ! ! ! ! ~ ~ ~ ~ /.(.Q._.2 < X % ",
"P.`.'.].[.{.^ E }.^ ^ ^ ^ ^ ^ ^ ^ ^ ^ ^ ^ ^ |.|. X.XXXoXOX, _ ` ' ] [ { +X{.^ E }.^ ^ ^ ^ ^ ^ ^ ^ ^ ^ ^ ^ ^ |.|. X.XE @X#X, i $ ",
"i.p.q.$X:.+X;.Z Z ;.Y.Z c c c c Z Z ;.;.;.;.;.%X&X&XR *X=X-Xk.@.#.$.%.;X*.+X;.Z Z ;.Y.Z c c c c Z Z ;.;.;.;.;.%X&X&XR :X>Xm.5 5 ",
"i.,X5.w.;X{ 9.C C C C C *.:.:.*.C C C 9.9.C C C C C <X:.<.<.h.2.3.4.5.%.;X{ 9.C C C C C *.:.:.*.C C C 9.9.C C C C C <X1X,.<.<.6 ",
"2X5.4.q.w.[ V V V V V V V V V V V V V V V V V V V V V 0.0.a a 3.%.4.4.q.w.[ V V V V V V V V V V V V V V V V V V V V V 0.0.p p p ",
"a a a p p p p p p p z 3.%.a.a.%.3.z p p p p p p p p p p p p p p p p a p p p p p p p z 3.%.a.a.%.3.z p p p p p p p p p p p p p p ",
"@.@.@.f.J 6 6 J J 6 h.#.3Xa.a.3Xd.' 6 J J 6 6 6 6 6 6 6 6 6 6 J f.@.@.f.J 6 6 J J 6 h.#.3Xa.a.3Xd.' 6 J J 6 6 6 6 6 6 6 6 6 6 6 ",
"Y Y Y B B B B B Y 5 4Xg.#.5X5X#.6X` 5 Y Y B 5 5 5 5 5 5 5 5 5 B B Y Y B B B B B Y 5 4Xg.#.5X5X#.6X` 5 Y Y B 5 5 5 5 5 5 5 5 5 5 ",
"N N N i i i N H H i _ 4X7X8X8X7X4X_ i H H N i i i i i i i i i i i i N i i i N H H i _ 4X7X8X8X7X4X_ i H H N i i i i i i i i i i ",
"< < < < < < : - ; X o 9X+ @ 7 + O.) < - 1 : < < < < < < < < < < < < < < < < : - ; X o 9X+ @ 7 + O.) < - 1 : < < < < < < < < < < ",
"w w w w w w l 0XN.; H B 6 @ 7 8 > ( e U G w w w w w w w w w w w w w w w w w l 0XN.; H B 6 @ 7 8 > ( e U G w w w w w w w w w w w ",
"g g g g g g k l 0X- H B 6 p a >.X./ y I I g g g g g g g g g g g g g g g g g k l 0X- H B 6 p a >.X./ y I I g g g g g g g g g g g ",
"n n h h h n j k l : N 5 6 p z x c v h b b n n n n n n n n n n n n n h h h n j k l : N 5 6 p z x c v h b b n n n n n n n n n n n ",
"m m m M M m n g w : N B 6 p V C Z A m S D m m m m m m m m m m m m m m M M m n g w : N B 6 p V C Z A m S D m m m m m m m m m m m ",
"m m m m m D j F G 1 H B J p V C K L D P S D m m m m m m m m m m m m m m m D j F G 1 H B J p V C K L D P S D m m m m m m m m m m ",
"D D D D D D b I U - H Y J p V T R E W Q P D D D D D D D D D D D D D D D D D b I U - H Y J p V T R E W Q P D D D D D D D D D D D ",
"! ! ! ~ ~ ! h g w < i 5 6 p V C K L m S D m ! ! ! ! ! ! ! ! ! ! ! ! ! ~ ~ ! h g w < i 5 6 p V C K L m S D m ! ! ! ! ! ! ! ! ! ! ",
"^ ^ ^ ^ ^ ^ v / ( ) _ ` ' ] [ { } |  ...E A ^ ^ ^ ^ ^ ^ ^ ^ ^ ^ ^ ^ ^ ^ ^ ^ v / ( ) _ ` ' ] [ { } |  ...E A ^ ^ ^ ^ ^ ^ ^ ^ ^ ^ ",
"c c c Z Z Z c X.o.O.+.@.#.$.%.&.*.} =.-.Z Z ;.;.;.;.;.;.;.;.Z Z c c c Z Z Z c X.o.O.+.@.#.$.%.&.*.} =.-.Z Z ;.;.;.;.;.;.;.;.;.;.",
":.:.:.*.C C x >.,.<.1.2.3.4.5.6.&.7.8.T T C C C C C C C 9.C C C *.:.:.*.C C x >.,.<.1.2.3.4.5.6.&.7.8.T T C C C C C C C C C C C ",
"V V V V V V V 0.0.a a 3.%.4.4.q.w.e.r.t.V V V V V V V V V V V V V V V V V V V 0.0.a a 3.%.4.4.q.w.e.r.t.V V V V V V V V V V V V ",
"y.5.4.%.3.z p p p p p p p p a a a u.u.a p p p p p p p p p p z 3.%.4.4.%.3.z p p p p p p p p a a a u.u.a p p p p p p p p p p p p ",
"i.p.a.s.d.' 6 J 6 6 6 J f.@.@.g.J 6 6 6 6 6 6 6 6 6 6 J J 6 h.2.s.a.a.s.d.' 6 J 6 6 6 J f.@.@.g.J 6 6 6 6 6 6 6 6 6 6 6 6 6 6 6 ",
"i.p.$.j.@.` 5 Y B 5 5 B B Y Y Y Y B B B B 5 5 5 5 5 B B Y 5 k.@.2.$.$.#.@.` 5 Y B 5 5 B B Y Y Y Y B B B B 5 5 5 5 5 5 5 5 5 5 5 ",
"i.l.] ' k._ i H H N i i i N N N N z.z.N N N i i i i N H H i _ k.h.] ] h.k._ i H H N i i i N N N N z.z.N N N i i i i i i i i i i ",
"i.5.a x.c., < - 1 : : < < < : : = v.v.= : : : < < < : - ; b.i c.n.p a <.O.) < - 1 : : < < < : : = v.v.= : : : < < < : : : X X X ",
"i.5.a x.m.( w U U l w w w w w M.M.M.M.M.l l w w w w l - N.  B.B 6 p 0.,.o.( w U U l w w w w w M.M.M.M.M.l l w w w w l 1 - ; * V.",
"i.5.0.<.C.Z.g I I A.F g g g g g F F F F F F F g g g k w - X $ B 6 p 0.>.X./ g I I A.F g g g g g F F F F F F F g g g k u : % S.* ",
"i.5.V :.c v h D.D.P S F.n n n n n n n n F.S S F.F.n j k < G.H.J.6 p V x c v h D.D.P S F.n n n n n n n n F.S S F.F.n j t K.b.X L.",
"P.5.V *.Z ^ m S S D D m m m m I.I.m m m m D D m m m n y < U.H.J.6 p V C Y.^ m S S D D m m m m I.I.m m m m D D m m m n t K.G.X L.",
"P.5.V :.c L m P T.W W D D D m m m m m D W W R.E.E.E.W.F l : $ B 6 p V C Z L m P T.W W D D D m m m m m D W W R.E.E.E.W.g u = % * ",
"i.5.V :.c L D P P S W W D D D D D D D D W W W E.E.Q.!.~.G 1 B.Y J p V C Z L D P P S W W D D D D D D D D W W W E.E.Q.^.F e - * V.",
"P.5.V *.Z ^ ! D D m ~ ~ ~ ! ! ! ! ! ! ! ~ ~ ~ ~ /.(.Q.).e < i 5 6 p V 9.;.^ ! D D m ~ ~ ~ ! ! ! ! ! ! ! ~ ~ ~ ~ /.(.Q._.2 < X % ",
"P.5.[ qX[.{.^ E }.^ ^ ^ ^ ^ ^ ^ ^ ^ ^ ^ ^ ^ |.|.|..XXXwXOX, _ ` ' z [ { +X{.^ E }.^ ^ ^ ^ ^ ^ ^ ^ ^ ^ ^ ^ ^ |.|.|..XE @X#X, i $ ",
"p.5.$.eXrX[.Z c c Z Z Z Z Z Z Z Z Z Z Z Z Z Z K K R tXyXuXm.iXpXj.3.$.$X:.[.Z c c Z Z Z Z Z Z Z Z Z Z Z Z Z Z K K R tX*Xo.m.5 B ",
"p.5.q.[ eXqX*.:.:.*.*.*.*.*.*.*.*.*.*.*.*.*.*.*.*.:.:.aXx.x.sXdXfX%.q.[ gXhX*.:.:.*.*.*.*.*.*.*.*.*.*.*.*.*.*.*.*.:.:.rX<.x.f.f.",
"2X5.5.q.$.[ V V V V V V V V V V V V V V V V V V V V V 0.0.a ] 3.%.4.4.q.$.[ V V V V V V V V V V V V V V V V V V V V V V 0.a a p ",
"2X5.5.5.5.5.5.5.5.5.5.5.5.5.5.5.5.5.5.5.5.5.5.5.5.5.5.5.5.5.5.5.5.5.5.5.5.5.5.5.5.5.5.5.5.5.5.5.5.5.5.5.5.5.5.5.5.5.5.5.5.5.5.5.",
"5.2X2Xp.p.P.P.i.i.P.P.P.P.P.P.P.P.P.P.P.P.P.P.P.P.P.i.i.i.i.i.,Xp.2X2X2Xp.P.P.i.i.P.P.P.P.P.P.P.P.P.P.P.P.P.P.P.P.P.i.i.i.i.i.i."
};
