/* XPM */
static char *a06f6cc699ed4b3181ca68e798e983247Sop5DV8mt3Fqs1B[] = {
/* columns rows colors chars-per-pixel */
"16 16 13 1 ",
"  c #3E272F",
". c #3E2731",
"X c #3D2831",
"o c #7F3F36",
"O c #733C39",
"+ c #733D3B",
"@ c #713E3A",
"# c #733E3A",
"$ c #743D3A",
"% c #743F3B",
"& c #743E3C",
"* c #823F37",
"= c #804037",
/* pixels */
"=== ======= ====",
"##=.######=.####",
"##=.%#####=.%###",
"....X.......X...",
".===*===.===*===",
".#%##%#o.#%##%#o",
".#####&=.#####&=",
"................",
"=== ======= ====",
"##=.######=.####",
"##=.%#####=.%###",
"....X.......X...",
".===*===.===*===",
".#%##%#o.#%##%#o",
".#####&=.#####&=",
"................"
};
